# xmcd CD database file
#
# Track frame offsets:
#	150
#	12677
#	27760
#	47425
#	63722
#	80735
#	99755
#	118637
#	131597
#	149137
#	165262
#	182885
#	197415
#	215970
#
# Disc length: 3103 seconds
#
# Revision: 0
# Processed by: cddbd v1.4PL0 Copyright (c) Steve Scherf et al.
# Submitted via: CDex 1.50beta9
#
DISCID=ca0c1d0e
DTITLE=Luiz Melodia - Para Sempre
DYEAR=2002
DGENRE=Rhythmic Soul
TTITLE0=Rosa
TTITLE1=Com muito amor e carinho
TTITLE2=Ébano
TTITLE3=Juventude transviada
TTITLE4=Pérola Negra - A coitadinha fracassou
TTITLE5=Quase fui lhe procurar
TTITLE6=Magrelinha
TTITLE7=Estácio holly Estácio
TTITLE8=Vale quanto pesa
TTITLE9=Sem trapaça
TTITLE10=Morena brasileira
TTITLE11=Cruel
TTITLE12=Saco cheio
TTITLE13=Morena da novela
EXTD=YEAR: 2002
EXTT0=
EXTT1=
EXTT2=
EXTT3=
EXTT4=
EXTT5=
EXTT6=
EXTT7=
EXTT8=
EXTT9=
EXTT10=
EXTT11=
EXTT12=
EXTT13=
PLAYORDER=
